<svg id="Application_Logo_CYM" data-name="Application Logo CYM" xmlns="http://www.w3.org/2000/svg" width="84.519" height="81.361" viewBox="0 0 84.519 81.361">
  <g id="Application_Logo_CYM-2" data-name="Application Logo CYM" transform="matrix(0.891, -0.454, 0.454, 0.891, -1199.762, 461.373)">
    <path id="Path_1" data-name="Path 1" d="M15.279,1.854C24.146,3,30.558,8.086,30.558,16.524S26.437,32.783,15.279,31.8,0,24.962,0,16.524,6.411.709,15.279,1.854Z" transform="translate(1265 184.22)" fill="#f15bb5"/>
    <path id="Path_2" data-name="Path 2" d="M13.864,1.909C21.754.807,30.9,8.5,29.992,16.289S22.771,31.728,15.368,30.465,0,24.571,0,16.289,5.975,3.011,13.864,1.909Z" transform="translate(1282.26 158.197)" fill="#00bbf9"/>
    <path id="Path_3" data-name="Path 3" d="M18.361,3.057c7.292.157,11.472,7,13.377,14.7S26.994,32.945,17.318,33.3,1.425,28.338.78,19.6,11.069,2.9,18.361,3.057Z" transform="translate(1298.215 184.733)" fill="#fee440"/>
    <path id="Path_4" data-name="Path 4" d="M18.361,3.057c7.292.157,11.472,7,13.377,14.7S26.994,32.945,17.318,33.3,1.425,28.338.78,19.6,11.069,2.9,18.361,3.057Z" transform="translate(1298.215 184.733)" fill="#fee440"/>
  </g>
</svg>
